# xmcd
#
# Track frame offsets:
#	150
#	13863
#	34713
#	47838
#	61438
#	73938
#	85563
#	96513
#	110150
#	120655
#	133900
#	145588
#	156813
#	168113
#	179738
#	196588
#	209950
#	221788
#	232488
#	247075
#	260380
#	270958
#	286863
#	297750
#	310938
#
# Disc length: 4306
#
# Revision: 11
# Processed by: cddbd v1.5.1PL0 Copyright (c) Steve Scherf et al.
# Submitted via: CDex 1.40Release
# Normalized: r9:DSETVAR1,TDELIM( - ),TSWAP
#
DISCID=8a10d019
DTITLE=Various Artist - Everlasting in Original Volume 4
DYEAR=1992
DGENRE=Noise
TTITLE0=Lobo - Me And You And A Dog Named Boo
TTITLE1=Paul Anka - My Way
TTITLE2=Lyn Anderson - Rose Garden
TTITLE3=The Four Aces - Love Is A Many Splendored Thing
TTITLE4=The Archies - Sugar Sugar
TTITLE5=Paul Anka - Put Your Head On My Shoulder
TTITLE6=Chubby Checker - Limbo Rock
TTITLE7=B.T. Jane - Green Green Grass Of Home
TTITLE8=Paul Anka - Diana
TTITLE9=Bobby Helms - You're My Special Angel
TTITLE10=Del Shannon - Runaway
TTITLE11=The New Seekers - I'd Like To Teach The World To Sing
TTITLE12=Johnny Tillotson - Poetry In Motion
TTITLE13=Pat Boone - Speedy Gonzales
TTITLE14=Lobo - Don't Expect Me To Be Your Friend
TTITLE15=Daniel Boone - Beautiful Sunday
TTITLE16=The Shirelles - Will You Love Me Tomorrow
TTITLE17=Paul Anka - Crazy Love
TTITLE18=Carl Douglas - Kung Fu Fighting
TTITLE19=Ben E. King - Spanish Harlem
TTITLE20=The Shirelles - Dedicated To The One I Love
TTITLE21=Johnny Wakelin - Black Superman (Muhammed Ali)
TTITLE22=Chubby Checker - Let's Twist Again
TTITLE23=Association - Never My Love
TTITLE24=Classics IV featuring Dennis Yost - Spooky
EXTD=YEAR: 1992 ID3G: 39
EXTT0=
EXTT1=
EXTT2=
EXTT3=
EXTT4=
EXTT5=
EXTT6=
EXTT7=
EXTT8=
EXTT9=
EXTT10=
EXTT11=
EXTT12=
EXTT13=
EXTT14=
EXTT15=
EXTT16=
EXTT17=
EXTT18=
EXTT19=
EXTT20=
EXTT21=
EXTT22=
EXTT23=
EXTT24=
PLAYORDER=
